<?xml version="1.0" standalone="no"?>
<!DOCTYPE svg PUBLIC "-//W3C//DTD SVG 20010904//EN"
 "http://www.w3.org/TR/2001/REC-SVG-20010904/DTD/svg10.dtd">
<svg version="1.0" xmlns="http://www.w3.org/2000/svg"
 width="500.000000pt" height="481.000000pt" viewBox="0 0 500.000000 481.000000"
 preserveAspectRatio="xMidYMid meet">

<g transform="translate(0.000000,481.000000) scale(0.100000,-0.100000)"
fill="#000000" stroke="none">
<path d="M1666 4272 c-2 -4 4 -25 14 -47 9 -22 41 -94 70 -160 70 -161 83
-190 113 -255 14 -30 41 -95 61 -145 37 -98 81 -200 96 -227 6 -10 10 -22 10
-27 0 -5 15 -42 34 -83 19 -40 48 -106 63 -147 16 -41 33 -76 38 -77 6 -2 51
61 101 139 104 162 116 170 174 115 38 -36 76 -79 130 -148 40 -51 155 -273
163 -316 3 -16 10 -47 16 -69 31 -127 41 -188 41 -251 0 -85 1 -84 -109 -84
-99 0 -258 -23 -386 -57 -55 -14 -110 -28 -123 -31 -12 -2 -25 -8 -28 -13 -3
-5 -16 -9 -30 -9 -13 0 -24 -4 -24 -10 0 -5 -6 -10 -14 -10 -8 0 -34 -10 -58
-21 -23 -12 -54 -27 -68 -33 -14 -6 -56 -31 -95 -55 -38 -25 -72 -45 -75 -46
-3 0 -15 -10 -28 -23 -12 -12 -27 -20 -31 -17 -5 2 -11 -2 -15 -10 -4 -11 2
-15 24 -15 34 0 40 -15 10 -23 -26 -7 -26 -27 0 -34 15 -4 18 -9 10 -18 -7 -9
-8 -15 -1 -19 6 -4 7 -14 4 -24 -6 -15 -5 -15 10 -3 14 11 20 11 32 1 27 -22
53 -92 48 -127 -4 -28 -1 -34 21 -44 14 -7 26 -20 26 -31 0 -16 13 -22 48 -21
6 1 12 -9 12 -21 1 -20 1 -20 14 -3 8 10 20 15 30 11 9 -3 23 -1 31 6 8 7 15
9 15 5 0 -3 15 2 33 13 78 47 127 70 192 91 39 12 79 26 90 31 47 20 90 29
172 36 l86 7 -6 -29 c-5 -28 7 -43 168 -207 116 -119 180 -177 194 -177 32 0
99 115 204 351 26 58 87 258 98 324 17 95 23 429 9 510 -32 192 -60 285 -137
455 -14 30 -29 63 -34 72 -12 24 -11 48 2 48 18 0 70 -40 133 -102 33 -32 62
-58 65 -58 4 0 19 -11 34 -25 22 -21 27 -23 27 -9 0 28 13 7 14 -22 1 -16 10
-33 23 -42 22 -14 23 -14 17 16 -6 28 -4 31 22 34 24 3 29 8 30 36 1 17 7 39
14 47 9 11 9 19 2 28 -14 16 -4 59 15 70 11 7 11 12 3 22 -7 8 -8 20 -4 27 5
7 9 26 10 41 1 16 11 38 23 51 25 27 32 108 12 145 -16 29 -77 91 -90 91 -5 0
-35 20 -68 44 -67 50 -128 86 -147 86 -7 0 -18 -10 -24 -22 -17 -32 -34 -59
-54 -82 -10 -11 -18 -26 -18 -33 0 -7 -4 -13 -8 -13 -5 0 -15 -12 -23 -27 -29
-58 -99 -163 -108 -163 -6 0 -23 17 -38 38 -15 20 -30 39 -33 42 -3 3 -23 28
-45 55 -22 28 -74 84 -117 126 -43 41 -78 83 -78 92 0 9 19 38 43 65 24 27 57
66 73 88 16 21 57 72 92 113 40 48 59 78 53 84 -5 5 -72 14 -148 18 -76 5
-181 13 -233 19 -94 10 -230 22 -445 40 -60 5 -182 16 -270 24 -184 18 -192
19 -199 8z"/>
<path d="M1423 3735 c-165 -117 -329 -281 -434 -435 -24 -36 -47 -67 -50 -70
-3 -3 -26 -43 -51 -90 -25 -47 -54 -101 -65 -120 -11 -19 -30 -66 -42 -105
-13 -38 -28 -83 -35 -100 -32 -74 -36 -88 -36 -125 0 -21 -5 -42 -10 -45 -6
-3 -10 -22 -10 -41 0 -26 5 -37 20 -42 12 -4 31 -28 43 -52 17 -34 29 -46 49
-48 16 -2 28 -11 31 -23 3 -10 12 -19 21 -19 12 0 16 -10 16 -35 l0 -35 75 0
c41 0 75 -4 75 -9 0 -5 14 -11 30 -13 20 -3 30 0 30 9 0 7 5 13 11 13 7 0 9
-12 5 -35 -4 -20 -3 -35 2 -35 6 0 13 19 16 43 16 103 19 117 27 123 5 3 9 25
9 49 0 24 5 47 10 50 6 3 10 13 10 22 0 35 105 276 132 304 8 8 22 31 31 51
15 32 46 75 121 168 64 78 189 189 274 242 34 22 62 45 62 52 0 6 -17 32 -37
57 -21 25 -47 58 -58 73 -47 66 -130 171 -137 174 -4 2 -8 9 -8 15 0 10 -56
78 -63 77 -1 -1 -30 -21 -64 -45z"/>
<path d="M4525 2335 c-12 -5 -509 -24 -877 -34 -153 -4 -281 -10 -284 -14 -6
-5 17 -38 139 -200 11 -15 30 -40 41 -56 12 -15 36 -47 54 -71 17 -24 32 -53
32 -66 0 -15 -25 -46 -72 -93 -65 -62 -210 -181 -223 -181 -2 0 -20 -11 -40
-24 -45 -31 -153 -83 -240 -116 -60 -23 -106 -35 -225 -56 -84 -14 -267 -15
-345 0 -112 20 -189 42 -193 55 -2 6 -12 11 -23 11 -10 0 -19 5 -19 10 0 6
-11 10 -25 10 -16 0 -25 -6 -25 -15 0 -8 -6 -15 -13 -15 -22 0 -9 -57 14 -63
15 -4 19 -14 19 -51 0 -34 4 -46 15 -46 8 0 15 -6 15 -14 0 -7 9 -16 20 -19
14 -3 20 -14 20 -31 0 -19 5 -26 19 -26 19 0 35 -25 26 -40 -3 -5 -1 -11 5
-15 6 -4 5 -13 -2 -25 -10 -16 -9 -23 10 -43 12 -13 22 -33 22 -45 0 -12 6
-22 13 -22 7 0 33 -20 57 -45 40 -41 71 -60 55 -35 -3 6 3 10 14 10 25 0 36
-16 19 -27 -20 -12 54 -22 172 -22 103 -1 310 21 360 38 14 5 45 14 70 21 25
7 63 19 85 26 62 19 253 111 301 144 23 17 45 30 49 30 9 0 96 60 120 83 11
11 36 31 55 45 19 15 65 58 101 96 97 100 85 108 248 -166 43 -73 71 -97 71
-63 0 8 5 24 10 35 6 11 15 29 20 40 6 11 10 27 10 35 0 8 4 23 10 33 9 15 83
227 141 402 12 36 25 74 29 85 5 11 16 40 26 65 9 25 32 90 50 145 18 55 48
145 68 200 20 55 36 106 36 113 0 12 -14 15 -35 7z m-2260 -1004 c-6 -5 -25
10 -25 20 0 5 6 4 14 -3 8 -7 12 -15 11 -17z"/>
<path d="M1945 1740 c-3 -5 -1 -10 4 -10 6 0 11 5 11 10 0 6 -2 10 -4 10 -3 0
-8 -4 -11 -10z"/>
<path d="M2105 1470 c-3 -5 -2 -10 4 -10 5 0 13 5 16 10 3 6 2 10 -4 10 -5 0
-13 -4 -16 -10z"/>
<path d="M2310 1200 c0 -5 5 -10 10 -10 6 0 10 5 10 10 0 6 -4 10 -10 10 -5 0
-10 -4 -10 -10z"/>
</g>
</svg>
